<svg xmlns="http://www.w3.org/2000/svg" width="512" height="473.018" viewBox="0 0 512 473.018">
  <g id="sunset-svgrepo-com" transform="translate(0 -3)">
    <path id="Path_289" data-name="Path 289" d="M37.76,73.077a8.752,8.752,0,0,0,8.76-8.76V11.76A8.76,8.76,0,1,0,29,11.76V64.317A8.752,8.752,0,0,0,37.76,73.077Z" transform="translate(218.24 0)"/>
    <path id="Path_290" data-name="Path 290" d="M52,40.76a8.752,8.752,0,0,0,8.76,8.76h52.558a8.76,8.76,0,0,0,0-17.519H60.76A8.752,8.752,0,0,0,52,40.76Z" transform="translate(389.923 225.028)"/>
    <path id="Path_291" data-name="Path 291" d="M8.76,49.519H61.317a8.76,8.76,0,1,0,0-17.519H8.76a8.76,8.76,0,1,0,0,17.519Z" transform="translate(0 225.028)"/>
    <path id="Path_292" data-name="Path 292" d="M54.026,77.766A8.736,8.736,0,0,0,60.219,75.2l50.245-50.245A8.758,8.758,0,1,0,98.077,12.568L47.832,62.813a8.76,8.76,0,0,0,6.193,14.953Z" transform="translate(337.653 54.315)"/>
    <path id="Path_293" data-name="Path 293" d="M59.813,75.2A8.758,8.758,0,0,0,72.2,62.813L21.955,12.568A8.758,8.758,0,1,0,9.568,24.955Z" transform="translate(54.315 54.315)"/>
    <path id="Path_294" data-name="Path 294" d="M50.871,44.3a8.78,8.78,0,0,0,11.493,4.643L86.557,38.664a8.765,8.765,0,0,0-6.85-16.135L55.513,32.8A8.77,8.77,0,0,0,50.871,44.3Z" transform="translate(375.732 146.193)"/>
    <path id="Path_295" data-name="Path 295" d="M10.37,39.14l24.36,9.846a8.759,8.759,0,1,0,6.57-16.24L16.94,22.9a8.759,8.759,0,1,0-6.57,16.24Z" transform="translate(37.974 149.449)"/>
    <path id="Path_296" data-name="Path 296" d="M29.815,44.445a8.765,8.765,0,0,0,16.135-6.85L35.675,13.4a8.765,8.765,0,0,0-16.135,6.85Z" transform="translate(141.691 39.31)"/>
    <path id="Path_297" data-name="Path 297" d="M43.092,49.132A8.759,8.759,0,0,0,54.5,44.3l9.846-24.36a8.759,8.759,0,1,0-16.24-6.57l-9.846,24.36A8.756,8.756,0,0,0,43.092,49.132Z" transform="translate(282.905 37.977)"/>
    <path id="Path_298" data-name="Path 298" d="M503.467,257.268H424.7a186.376,186.376,0,0,0,10.5-61.317C435.2,94.524,354.807,12,256,12S76.8,94.524,76.8,195.951a186.376,186.376,0,0,0,10.5,61.317H8.533a8.763,8.763,0,0,0,0,17.519H503.467a8.763,8.763,0,0,0,0-17.519Zm-398.148,0a168.723,168.723,0,0,1-11.452-61.317C93.867,104.177,166.6,29.519,256,29.519s162.133,74.658,162.133,166.432a168.724,168.724,0,0,1-11.452,61.317Z" transform="translate(0 69.836)"/>
    <path id="Path_299" data-name="Path 299" d="M420.916,45H13.488a8.764,8.764,0,0,0,0,17.519H420.916a8.764,8.764,0,0,0,0-17.519Z" transform="translate(38.798 325.903)"/>
    <path id="Path_300" data-name="Path 300" d="M338.388,50H18.42a8.766,8.766,0,0,0,0,17.519H338.388a8.766,8.766,0,0,0,0-17.519Z" transform="translate(77.596 364.701)"/>
    <path id="Path_301" data-name="Path 301" d="M272.4,55H22.335a8.77,8.77,0,0,0,0,17.519H272.4A8.77,8.77,0,0,0,272.4,55Z" transform="translate(108.634 403.498)"/>
    <path id="Path_302" data-name="Path 302" d="M98.563,122.489V21H81.044V122.489L34.679,76.124,22.293,88.51,89.8,156.02l67.51-67.51L144.927,76.124Z" transform="translate(166.197 139.673)"/>
  </g>
</svg>
